<svg width="31" height="30" viewBox="0 0 31 30" fill="none" xmlns="http://www.w3.org/2000/svg">
<path d="M0.919617 14.8362C0.921314 22.0103 6.13812 28.1188 13.2236 29.2431V19.0508H9.52378V14.8362H13.228V11.6279C13.0624 10.1076 13.5816 8.59249 14.6449 7.4934C15.7082 6.39432 17.2053 5.82519 18.7302 5.94038C19.8248 5.95806 20.9166 6.05554 21.9969 6.23205V9.81809H20.1536C19.519 9.73497 18.881 9.94456 18.4193 10.3878C17.9576 10.8311 17.7222 11.46 17.7794 12.0975V14.8362H21.8204L21.1744 19.0523H17.7794V29.2431C25.4422 28.0321 30.8156 21.0338 30.0068 13.3182C29.198 5.60258 22.4902 -0.129307 14.7429 0.275015C6.99556 0.679337 0.920848 7.07833 0.919617 14.8362Z" fill="#383838"/>
</svg>
