<svg width="26" height="27" viewBox="0 0 26 27" fill="none" xmlns="http://www.w3.org/2000/svg">
<path d="M13.4358 11.4357V16.4684H20.4242C19.7738 19.6666 17.0511 21.5041 13.4358 21.5041C9.22498 21.4461 5.84181 18.0161 5.84181 13.8048C5.84181 9.59353 9.22498 6.16348 13.4358 6.10552C15.1862 6.10343 16.8826 6.71084 18.2338 7.82344L22.0254 4.03177C17.6761 0.208123 11.3242 -0.283675 6.43812 2.82492C1.55205 5.93352 -0.693909 11.8954 0.926627 17.4552C2.54716 23.0149 7.64473 26.8364 13.4358 26.8328C19.9502 26.8328 25.874 22.0947 25.874 13.8041C25.8639 13.0058 25.7661 12.2111 25.5823 11.4343L13.4358 11.4357Z" fill="#383838"/>
</svg>
