<svg width="27" height="28" viewBox="0 0 27 28" fill="none" xmlns="http://www.w3.org/2000/svg">
<path d="M13.5029 27.0181C9.91543 27.0181 9.49251 26.9991 8.09251 26.9379C7.00076 26.902 5.92315 26.68 4.90605 26.2816C3.1463 25.5968 1.7548 24.2048 1.07064 22.4447C0.687543 21.424 0.480914 20.3455 0.459596 19.2554C0.37793 17.8583 0.37793 17.4004 0.37793 13.8406C0.37793 10.2429 0.396888 9.82287 0.459596 8.43016C0.48138 7.34154 0.688002 6.26455 1.07064 5.24516C1.75406 3.48281 3.14782 2.08958 4.91043 1.40683C5.92928 1.02212 7.00656 0.814953 8.09543 0.794326C9.48814 0.715576 9.94605 0.715576 13.5029 0.715576C17.1196 0.715576 17.5352 0.734535 18.9133 0.794326C20.005 0.815132 21.0852 1.02228 22.1071 1.40683C23.8692 2.09035 25.2627 3.48331 25.9469 5.24516C26.3364 6.2794 26.5442 7.37323 26.5608 8.47828C26.6425 9.87537 26.6425 10.3318 26.6425 13.8902C26.6425 17.4485 26.6221 17.9152 26.5608 19.2962C26.5391 20.3873 26.332 21.4668 25.9483 22.4885C25.2624 24.2497 23.8689 25.6423 22.1071 26.3268C21.0866 26.7092 20.0087 26.9158 18.9192 26.9379C17.5265 27.0181 17.07 27.0181 13.5029 27.0181ZM13.4533 3.02412C9.88626 3.02412 9.51585 3.04162 8.12314 3.10433C7.29187 3.11534 6.46863 3.26874 5.68918 3.55787C4.53819 3.9983 3.62743 4.90536 3.1823 6.05453C2.89095 6.84247 2.73752 7.67471 2.72876 8.51474C2.65147 9.92787 2.65147 10.2983 2.65147 13.8406C2.65147 17.3406 2.6646 17.765 2.72876 19.1693C2.74182 20.0009 2.89515 20.8242 3.1823 21.6047C3.62808 22.7532 4.53869 23.6595 5.68918 24.1C6.4681 24.391 7.29167 24.5445 8.12314 24.5535C9.5348 24.6352 9.90668 24.6352 13.4533 24.6352C17.0306 24.6352 17.4011 24.6177 18.7821 24.5535C19.6139 24.5434 20.4378 24.3899 21.2175 24.1C22.3615 23.6557 23.2664 22.7514 23.7113 21.6077C24.0021 20.8191 24.1555 19.9864 24.1648 19.146H24.1808C24.2436 17.7518 24.2436 17.38 24.2436 13.8172C24.2436 10.2545 24.2275 9.87974 24.1648 8.48703C24.1517 7.65644 23.9984 6.83403 23.7113 6.05453C23.2674 4.90912 22.3624 4.00309 21.2175 3.55787C20.438 3.26728 19.614 3.11384 18.7821 3.10433C17.3719 3.02412 17.0029 3.02412 13.4533 3.02412ZM13.5029 20.5766C10.7758 20.5784 8.31625 18.9371 7.27127 16.4181C6.22629 13.8992 6.80175 10.9988 8.72927 9.06958C10.6568 7.1404 13.5567 6.56243 16.0765 7.60523C18.5964 8.64802 20.2398 11.1062 20.2404 13.8333C20.2364 17.5536 17.2232 20.5694 13.5029 20.5766ZM13.5029 9.45537C11.0867 9.45537 9.12793 11.4141 9.12793 13.8304C9.12793 16.2466 11.0867 18.2054 13.5029 18.2054C15.9192 18.2054 17.8779 16.2466 17.8779 13.8304C17.8723 11.4165 15.9168 9.46098 13.5029 9.45537ZM20.5029 8.41558C19.6358 8.41236 18.9351 7.70768 18.9367 6.84059C18.9383 5.97349 19.6417 5.27142 20.5088 5.27142C21.3759 5.27142 22.0792 5.97348 22.0808 6.84058C22.0812 7.25892 21.915 7.66019 21.6189 7.95573C21.3229 8.25127 20.9213 8.41674 20.5029 8.41558Z" fill="#383838"/>
</svg>
