<svg width="39" height="49" viewBox="0 0 39 49" fill="none" xmlns="http://www.w3.org/2000/svg">
<path fill-rule="evenodd" clip-rule="evenodd" d="M11.8359 33.132C11.7517 33.334 11.7052 33.5557 11.7052 33.7883V46.8474C11.7052 47.7904 10.9407 48.5549 9.99777 48.5549H1.70742C0.764438 48.5549 0 47.7904 0 46.8474V1.70743C0 0.764442 0.76444 0 1.70742 0H19.3753C23.2659 0 26.6118 0.711426 29.413 2.13428C32.2365 3.55713 34.4041 5.51356 35.9159 8.00355C37.4277 10.4713 38.1836 13.2948 38.1836 16.474C38.1836 19.6087 37.4277 22.3432 35.9159 24.6776C34.4041 27.012 32.2365 28.835 29.413 30.1467C26.6118 31.4362 23.2659 32.0809 19.3753 32.0809H14.2263V29.1002L14.2342 29.1001L14.2267 25.1173L14.227 25.0733C14.2404 24.2601 14.5947 23.411 15.1227 22.6282C15.4945 22.0771 15.9186 21.6095 16.275 21.2732C20.2183 21.9872 23.0103 21.022 24.8499 19.2911C26.7204 17.5311 27.4409 15.1332 27.5504 13.4557C27.555 13.3864 27.5533 13.3182 27.5458 13.2515C27.5222 12.7431 27.1611 12.2937 26.6402 12.1803C22.3785 11.2521 19.3971 12.2254 17.4656 14.0427C15.7314 15.6745 14.9857 17.8545 14.7989 19.5005C14.3663 19.8964 13.8735 20.4233 13.4207 21.0443C13.3788 20.976 13.3346 20.91 13.2877 20.8467C13.2206 20.7561 13.1428 20.6781 13.0572 20.6133C13.3903 19.4369 13.49 17.894 12.881 16.4036C12.1014 14.4958 10.2511 12.8879 6.8282 12.2104C6.8185 12.2085 6.8088 12.2067 6.79912 12.2051C6.38033 12.1084 5.93978 12.3226 5.76542 12.7317C5.24927 13.943 4.91736 15.8679 5.67111 17.7124C6.41329 19.5287 8.12588 21.0731 11.2419 21.8018C11.277 21.9476 11.3413 22.0889 11.4361 22.217C11.5517 22.3732 11.7039 22.8028 11.8068 23.4756C11.8173 23.5443 11.827 23.6132 11.8359 23.6819V33.132Z" fill="#141414"/>
</svg>
